<?xml version="1.0" encoding="UTF-8"?>
<svg id="Layer_1" xmlns="http://www.w3.org/2000/svg" version="1.1" viewBox="0 0 595.28 165.98">
  <!-- Generator: Adobe Illustrator 29.7.1, SVG Export Plug-In . SVG Version: 2.1.1 Build 8)  -->
  <defs>
    <style>
      .st0 {
        fill: #3a2b26;
      }

      .st1 {
        fill: #3d2e2a;
      }
    </style>
  </defs>
  <g>
    <path class="st0" d="M423.06,53.42c18.15,18.08-2.82,45.8-25.71,40.96-1.3-.16-7.49-1.17-6.59-3.23.71-1.63,4.57-.12,6.05,0,33.58,4.09,29.41-41.73-.99-41.1-2.72-.15-7.63-.45-7.96,3.15l.04,70.3c.42,6.46,7.43,7.02,11.83,8.65,1.88,5.27-15.3.96-18.55,1.83-3.53.02-7.88.84-11.34.53-6.3-2.11,4.82-4.45,6.04-6.59.95-1.2,1.32-2.58,1.8-4,.65-22.53.55-45.31.05-67.86-1.06-7.63-7.69-4.62-9.95-8.93-.15-1.87,3.66-1.4,4.87-1.35,15.22,2.22,38.16-4.06,50.43,7.66Z"/>
    <path class="st0" d="M577.04,121.63v-38.94c0-.38-.48-2.13-.64-2.63-.66-5.82-9.35-4.2-8.83-7.33.57-.78,6.81.52,8.07.53,1.94.41,11.78-2.85,9.73.89-10.26,3.64-2.96,47.41-5.05,59.22-.22,3.09-2.28.79-3.41-.38l-40.07-45.11c-2.15,8.83-.61,19.83-1.12,29.11-.34,4.96-1.67,13.77,4.52,15.37.92.23,3.56-.27,3.01,1.46-4.99,1.67-11.92-.67-17.46.67-3.91-1.9,3.85-2.97,4.64-4.66,2.13-2.78,1.61-6.61,1.75-9.84-1.48-12.42,6.68-37.54-5.86-44.78-1.38-.54-3.44-.19-3.23-2.34-.78-1.12,9.84-.44,9.86.25.88.26,42.74,49.17,44.1,48.52Z"/>
    <path class="st0" d="M262.56,77.09c22.72-2.07,40.05,16.08,31.92,38.73-7.77,22.31-31.27,17.28-49.92,18.88-1.05.11-3.01.05-2.25-1.49,3.38-1.92,5.45-1.93,5.67-6.93-.74-13.29,1-27.67.01-40.83.17-3.76-2.38-5.82-5.69-6.41-5.69-3.79,18.18-.67,20.24-1.95ZM259.03,79.36c-2.29.25-4.52.92-4.74,3.58v43.61c-.14,2.95,4.16,4.08,6.5,4.58,41.83,9.79,36.31-58.68-1.76-51.77Z"/>
    <path class="st0" d="M491.79,133.91c-1-.76-30.97,2.33-16.07-3.08,2.61-1.53-4.83-21.79-8.19-20.3-6.59-.58-14.01.46-20.69,0-4.99.91-8.06,13.06-9.42,16.8-.4,4.89,3.83,3.45,5.97,5.04,2.96,3.41-14.52.57-16.83,1.6,15.28-15.35,20.72-41.3,31.79-60.83.91-1.8,1.9-4.38,3.36-1.17,10.04,18.43,12.49,43.83,26.33,59.61,1.31.34,4.47.1,3.73,2.32ZM457.75,82.85c-4.74,6.08-6.57,14.92-10.64,21.63-.19.67-.34,2.05.38,2.4h19.66c1.61-.76-7.69-25.05-9.4-24.03Z"/>
    <path class="st0" d="M341.26,77.54c.39-.58,9.43.02,10.95-.01,4.3-1.07,8.31.64,1.95,2.71-8.28,18.69,9.49,54.63-24.38,55.26-34.96.87-14.04-39.21-25.41-55.76-10.9-3.5,7.42-2.36,10.04-2.2,1.58-.04,6.51-1.37,4.8,1.52-3.26.44-4.72,2.24-5.16,5.42.4,10-.63,20.54-.04,30.48-1.55,21.51,32.36,23.42,34.51,2.98,1.02-10.66-.64-22.86-.03-33.67-.25-5.52-7.79-3.98-7.22-6.72Z"/>
    <path class="st0" d="M340.86,71.47c-.98-1.57,2.33-.46,2.14-3.41-.05-5.2.19-11.69-.88-16.75-12.29,20.09-7.1,28.77-18.98,1.33-1.24-2.46-1.08,1.66-1.32,2.56.53,4.55-3.15,14.6,3.29,15.51v.75s-19.41-.12-19.41-.12c-.84-1.95,3.44-1.07,2.92-3.67l-3.95-10.42c-3.38-2.17-10.57-.83-14.47-.92-3.59.02-5.63,8.55-6.43,10.99-.06,3.41,3.71,1.43,4.04,3.89-1.05.54-1.89.02-2.89,0-2.49-.29-12.19,1.23-5.42-2.12,7.92-11.1,11.43-26.95,19.01-38.19,4.63,5.63,12.33,44.11,20.55,38.45,1.03-4.93,3.92-20.23-.78-24.19-.75-.5-1.52,0-1.24-1.4l5.17.5,10.58,21.69,11.01-21.89,4.49-.03v.74c-5.43-.83-2.12,20.24-2.21,24.01.13,2.02,2.53,1.01,2.72,2.7h-7.94ZM302.9,54.05c.22-1.13-5.31-17.86-6.73-14.67-1.44,2.69-6.37,11.44-6.31,14.67h13.04Z"/>
    <path class="st0" d="M512.61,76.6c-4.99,14.91.19,33.13-1.58,48.9.32,2.83,1.96,5.4,4.71,6.38,2.89-.04,5.37,2.21,1.19,2.61-6.19-.41-12.63-.61-18.86-.06-3.27-1.61,1.32-2.64,2.67-3.52,6.13-.37,2.11-47.15,3.21-50.5.24-6.14-10.08-5.43-7.01-7.99,6.24-.05,13.98.54,20.43-.14,2.69,3.01-3.68,2.36-4.77,4.32Z"/>
    <path class="st0" d="M249.83,68.37c5.38,2.24,15.54.49,18.95-4.96,2.23,1.91-2.51,7.92-5.16,7.95-7.29-.37-15.51,1.05-22.58-.13-.12-1.73,3.81-1.71,3.9-4.95-.57-9.26.84-19.59.03-28.72.21-3.84-4.58-3.2-4.55-5.41,3.95.63,9.29-.5,12.85.38-.22,1.9-4.04.97-4.03,5.04-.33,9.66-.38,21.23.58,30.79Z"/>
    <path class="st0" d="M359.89,71.47c-.28-.27-10.07.58-9.71-.5.31-.71,2.77-.81,3.14-3.17-.44-6.37.64-13.64.03-19.91.05-2.99-2.73-2.07-3.29-3.89.28.27,9.81-.59,9.45.5-.38.84-2.73.25-3.13,3.17.36,6.18-.55,13.04-.03,19.14.09,4.08,2.8,2.67,3.54,4.65Z"/>
    <path class="st0" d="M270.17,46.52c3.59-4.43,4-8.23-.72-11.93,4.96-8.65,8.89,3.25,5.55,7.81-.45.89-3.66,5.16-4.83,4.11Z"/>
  </g>
  <g>
    <path class="st1" d="M120.12,99.34c13.7-10.5,6.72,2.42,17.2,4.37,3.62-3.87.67-10.95,1.4-14.33-.51.62-1.07-4.36-.32-4.11.04-1.62-1.05-5.52-.71-6.55,10.7-3.31,19.74-4.07,29.25-3.63.07,1.4.43.46,1.06,0,.17.44,1.01.36,1.43.14.03.23-.12.57.27.33.41.5.83-.23.49.96,1.02-1.29.21.73,1.51-.14.33,2.98,6.52,5.24,8.63,7.63,28.94.53,20.92,32.49,22.95,50.86-.7,2.15-2.74,4.63-5.11,2.7-.4,1.2-2.19,1.45-2.86.34.25-.71,1.23-.55.74-1.49.86.04.39.23.3.72.59.16.75-.79,1.5-.43.06.04.19.96.54.57,1.13-.88-.6-3.3.99-3.32.1,1.01-.83,1.76.07,2.6,5.28,2.31.23-21.89,1.14-25.33-.98-3.1,2-12.43-3.33-9.46.03-.61,2.53-1.26,1.36-1.87-.04.49-1.59.3-1.67.86-.49-.13-.95-.85-.6.15-.32-.36-.31-.25-.38.15-.16-.75-.38.18-.81-.13-.33.38-.62.57-.48,1.29-.47-1.77-2.75,1.24-3.93.36,1.33-2.48,2.52-4.81,4.09-7.82.76-5.06-4.75,6.15-5.56,7.57-1.55,2.79-4.98-2.38-7.91-1.7,9.78-2.3-3.78-.94-5.46-2.29-2.52-.17-9.27-3.73-9.98-3.33-.18.92,1.63,1.08.77,2.01.75-.64,1.22,1.18,2.42.58.58,1.78,8.31,2.16,8.62,2.6,2.24,2.19,11.13,17.11,9.98,22.98-.53,1.68-4.78,8.75-1.28,8.2,1.26.35-1.23.8-1.68.86,3.47,7.07,2.4-4.91,6.14-5.19.19-7.66-1.59-15.39-3.33-22.66,2.99,7.4,7.49,19.12,2.01,25.5-1.84,3.75.92,8.76,5.11,6.54,1.39,2.18-2.1,2.34-3.48,1.23,2.15-.26-1.57-1.8-.3-.07-8.89-6.46-3.93,1.18-6.63,4.1-.74-2.03.45-4.75-.73-6.67-9.93-.34-19.63,1-29.9.71-.43,1.72-.3,2.78-1.3.28-.94,8.28.68,9.78-1.99,16,.82.58.76,3.18-.3,2.6,1.04.44-.15.41.3,1.07,1.27.12-.36.37-.6.37.66,1.1-.55,2.44-.91,3.32.05-.3-.41-1.14.15-1.08-2.43-9.9,10.63-26.12-6.26-21.98-2.18-.16-.29-1.81-2.34.13-.08-1.12-2.01.54-2.12-.28-.25-.05-.36.05-.37.28-.07-.69-.55.2-.97-.16-.11-.92-.23-.62-.54.01-.28-.37-.51-.21-.68.15-.24-1.38-.16.53-.91.15-.1-.42-.28-1.57-.82-.69-1.23.05-1.88-.22-3.16-.08-3.7-.54-.58-1.19-.63-.38,10.21-1.34,80.23-1.9,38.72-3.11-4.21.5-10.28.79-14.82.65-1.78-.15-9.3,1.24-8.84-.42-.54,1.69-2.46.36-3.7,1.01-.33-.05-.08-.73-.38-.72-.17.3-.15.82-.53.29-.37,1.38-.25-1.32-.76.58-.92-1.44-3.13-.09-4.84-1.16,4.93-1.54,23.28-.39,32.75-1.44-3-.84-22.02,2.14-20.27-4.33-1.47.75.03-.58-1.06-.15.64-.33-.79-1.68-1.36-1.44-3.9-6.01-11.11-9.85-16.79-15.23,2.28,5.95,11.65,9.19,11.95,13.64.48,5.9-9.61-2.79-15.17-3.64-1.8-.76-3.01-2.67-1.74-4.19.65-10.75-7.77-14.08-14.25-18.43-.51.31-.47-.04-.45-.43-.81.03-1.85-1.05-1.66-1.3-22.51-7.23-18.76,6.86-23.9-15.3-.9.51,2.67,14.75.45,8.59-1.63-2.09-.94-17.98-6.83-14.03-10.89,4.97-24.82,14.81-27.72,24.92,27.05,10.25,6.58,11.22,34.64-6.06-21.4,16.68-13.8,18.54-31.62,7.95-15.93-5.83,26.33-32.2,32.15-30.75-.38,1.7.29.01,1.18.09.14-.48,1.67.38,2.22-.39.86.24.73.37,1.91.22.25.89.37.53.67-.06.79.88,1.35.07,1.66-.3.79,1.82,4.21.4,6.23,1.71-20.53-1.59-13.84,3.17-10.54,19.94,20.41-4.43,34.59,16.89,32.67,7.21ZM191.43,91.18c-1.65.84-4.56,3.97-5.93,5.46-.06,1.98,10.53-6,5.93-5.46ZM163.98,98.33c-1.06-1.13-7.36-3.1-4.39.14,2.66.67,5.55.97,7.77,1.41,2.52-.73-2.71-2.46-3.39-1.55ZM123.14,107.13l-1.81-4.91c-.36,1.91,1.1,3.37,1.81,4.91ZM146.92,113.74c0-1.96-13.37-8.16-10-4.96,4.79,4.11,7.61,2.92,11.78,8.6-.07-1.28-.25-3.16-1.78-3.64ZM125.56,114.64c.31-.91-1.81-5.73-2.12-6.64,0,1.58.36,3.28,1.21,4.96-.86.26.31.53.46.87.24.4-.05.9.44.8ZM124.81,118.39c.75-.69.31-2.21.6-3.17-1.33.86-1.2,1.99-.6,3.17Z"/>
    <path class="st1" d="M191.2,10.44C130.72,21.38,64.34,33.17,6.84,43.78c8.96,29.48,14.16,66.39,19.36,98.57C19.21,109.2,9.27,74.68,6.29,41.61c0,0,185.59-33.62,185.59-33.62,6.02,13.26,6.04,30.48,9,45.17-3.3-11.32-8.47-37.93-9.68-42.72Z"/>
    <path class="st1" d="M58.56,135.99c-6.05-18.19,15.26-24.32-1.71-29.46-2.58-1.95-6.51-2.83-9.78-4.6.6-.82-.04-.46-.61-.36.52.1.55,1.17,0,.79-1.86,6.35-4.48,11.54-5.15,17.66-1.43,3.16-.33,10.81-2.71,11.93.82,1.33.88,3.17.22,4.62-.6-.7-.07.6.38.72-.35-1.13,1.48-1.35,1.21-.22,1.51-1.15.79.13,2.12-.79-.89,1.04.1.31.76.43-.11-1.74,1.55.94,1.81.47-.32-.52,6.22-.36,6.37.09,9.03-.18-12.19,2.01-13.89-.24.96-11.18,1.72-29.2,9.83-36.3,7.53,4.12,22.79,5.87,15.54,16.35,2.05-.02,17.22-1.84,15.58,1.01,1.62-.61,1.77.11,3.09.88,1.33.03.75,1.26,2.03,1.16.3.55-.19.47-.13.99,1.21-.8,1.06,2.05,1.96.72,2.66,6.72-1.68,9.96-9.07,10.53,10.27-.82,20.87-1.75,31.31-.5-9.51,1.85-20.59-.28-28.81,1.98-2.18-.11-8.32,1.26-8.85-.46.08,1.47-2.57.6-2.65,1.01-.33-.63-.65.53-.83-.72-.36,1.08-1.01-.36-1.66.87-.06-.17-.29-1.63-.57-.72-1.51.25-2.84-.43-4.42-.29.95-1.1,2.11-.02,3.33-.72-3.56-.2-5.31-1.06-4.69,3.17Z"/>
    <path class="st1" d="M122.03,62.74c4.88,2.4,17.32,15.31,13.05,21.07-4.08,1.78-8.72.31-12.48-1.5-9.28,3.02-9.48-1.57-15.94-.73.2,8.2,8.43,8.96,11.41,16,3.08-2.16,11.1-5.92,12.55-3.03-4.27-.4-7.87.59-10.75,3.6-3.91,2.37-5.21-4.55-7.38-6.62-1.45-1.02-4.63.25-4.15-1.96-1.93-2.58-6.1-9.99.59-9.94-4.35-1.21-9.45-7.24-6.34-11.67,7.04-1.77,12.42-7.28,19.44-5.22ZM121.42,64.04c-3.35-1.61-22.17,3.84-17.79,8.52,2.17,1.51,4.97,4.41.15,1.09,2.49,9.16,16.23-.85,21.81-2.35,6.31-1.24-1.61-5.29-4.17-7.26ZM128.74,69.9c-.13.16.57,1,.84.58.16-.91,0-.91-.84-.58ZM118.45,81.44c.26-.7-2.43.46-2.57.36.44.5,2.15-.3,2.57-.36ZM130.86,82.89c-.58-.14-1.7-.17-1.66.65.24.29,1.21-.56,1.66-.65Z"/>
    <path class="st1" d="M125.61,126.94c.14,3.96-13.6,3.6-7.55,4.15,1.07.12,5.31,4.5,2.77,3.76-.48-.36-1.39-1.2-1.48-1.77-2.02-1.58-5.87-.56-7.25.18,1.57,2.78.57,5.46,4.47,5.05,1.22-.75,4.29.13,5.01-.86,1.55.79,1.63-1.77,2.17,0,.29-.8,1.88,0,2.19-1.01.72,1.45-.54.17-.47,1.17-3.26,1.33-13.45,5.15-13.59-1.23-2.23-3.18-16.37-.09-20.12-.23-4.45.48-9.91,1.2-14.82.72-1.87,1.18-5.23.37-7.03.87.45-1.07-.55-.38-.91.29-.25-.73-1.34.03-1.95-.02-.5-.34-.86.59-1.38-.7-.02.42-.11.97-.6.43-.25.56-.38.36-.45-.14-.38,1.2-.56.3-.91-.29-1.12.62-3.07.55-4.16,0,8.63-1.41,35.25-3.01,49.91-3.03,2.07.52,1.49-1.39,2.49-2.59-.48-.16-2.56.45-2.09-.55,4.83-.88,7.75-2.34,12.31-2.64,1.26-.88,2.97-2.66,2.64-4.17.72.14.15-.59.9-.73-.31-.34-.05-.5.3-.43,1.47-4.8,1.11,2.25-.4,3.8Z"/>
    <path class="st1" d="M93.91,97.8c16.29,2.33,19,11.31,23.05,20.97-.47.7.71,1.53-.47,1.78,0,0,.75.22.75.22-.29.6-.41.94.46.79-.07.2.14.6-.28.31-.84.62.06,1.52-.14,2.61.67.73-.11,1.7-.04,2.32.49.15.48,1.01-.3.29-.79-17.81-15.32-31.09-34.93-28.91,3.1-1.75,8.18-.19,11.9-.38Z"/>
    <path class="st1" d="M224.63,133.83c4.83,1.19-16.94,1.88-19.81,1.15-.26-1.28,7.47-1.2,8.01-.58-.06-1,10.03-1.6,9.38-.43-.02-1.22.73-.2.91-.86.37.15.37.54.53,0l.23.72c.01-1.08.44.22.46-.86l.3.87Z"/>
    <path class="st1" d="M224.78,130.51c-.01,1.36-7.03,1.21-7.41.58-.42,1.32-3.35.56-3.73.87-1.43-.51-4.03.92-4.82-.15-.38.72-1.7.79-1.59-.14.03.81-.37.13-.46.86.26-1.46-2.37-.32-2.11-1.44,6.35-.56,13.69-1.43,20.11-.58Z"/>
    <path class="st1" d="M173.21,137.01c.62-.51,1.33.16,1.66-.29-2.2,4.21-23.73,7.18-9.6,3.17.22.89.71-.8,1.45-.78,1.7.17,3.96-2.32,4.97-1.38-.19-.65.59-1.24,1.06-.58.15-.62.1-.93.46-.14Z"/>
    <path class="st1" d="M135.95,130.17c-1.95.68-2.43,2.98-4.61,2.19.76-1.37,2.91-2.48,4.32-4.22,2.35-1.47,1.85.66.3,2.02Z"/>
    <path class="st1" d="M111.23,105.37c-.12-1.38,2.57-1.26,3.67-2.58,3.18.91-2.66,3.45-3.67,2.58Z"/>
    <path class="st1" d="M101.46,96.41c-.83,1.58-2.15,1.01-1.39-.75.27-1.7,2.36-.6,1.39.75Z"/>
    <path class="st1" d="M112.25,93.28c.35,1.01-.12,4.38-1.34,2.84.72-.77.58-2.45,1.34-2.84Z"/>
    <path class="st1" d="M198.01,133.83c.03.77.02,1.8-.45,2.6.18-.47-1.02-3.21.45-2.6Z"/>
    <path class="st1" d="M122.07,67.02c-.25.78,1.08.21,1.07,1-4.63-1.59-8.85-.11-13.46,0,2.61-1.25,9.11-1.98,12.39-1Z"/>
  </g>
</svg>